<svg fill="#A95592" id="Capa_1" enable-background="new 0 0 512 512" height="512" viewBox="0 0 512 512" width="512" xmlns="http://www.w3.org/2000/svg"><g><path d="m461.004 205.859-10.643-10.644-59.307 59.307c-3.089-56.531-30.323-108.55-74.816-143.332 6.812-10.958 10.76-23.873 10.76-37.697v-29.095h-74.74c-8.473 0-16.603 1.488-24.154 4.201l8.641-32.297-29.081-7.781-13.63 50.945c-16.285-22.764-42.937-37.628-72.997-37.628h-93.811v33.581c0 27.77 12.686 52.632 32.566 69.098-38.217 36.771-59.792 87.05-59.792 140.805 0 107.9 87.783 195.683 195.683 195.683 8.668 0 17.346-.581 25.911-1.713 32.97 29.453 74.531 44.188 116.097 44.188 44.658 0 89.315-16.998 123.312-50.996 67.996-67.995 67.996-178.631.001-246.625zm-135.195 156.482.609 51.146c-13.474-1.774-26.205-6.704-37.301-14.454zm30.699 49.794-.582-48.93 33.489 33.489c-9.777 7.522-20.963 12.757-32.907 15.441zm53.219-37.702-33.251-33.251 45.434-.376c-1.61 11.763-5.663 23.252-12.183 33.627zm-32.65-63.361 30.466-30.466c6.434 9.245 10.816 19.493 13.158 30.105zm-80.197-236.57c-.536 22.431-18.951 40.512-41.509 40.512h-44.624c.539-22.429 18.952-40.512 41.509-40.512zm-239.549-22.561h63.705c32.861 0 59.595 26.734 59.595 59.595v3.477h-63.705c-32.861 0-59.595-26.734-59.595-59.595zm-27.227 213.381c0-48.515 20.769-93.69 57.252-125.218 9.263 3.244 19.213 5.014 29.57 5.014h138.445c14.735 0 28.442-4.476 39.841-12.135 41.547 31.25 66.049 79.956 66.049 132.339 0 6.76-.418 13.54-1.229 20.221l-144.125 144.125c-6.692.813-13.46 1.233-20.224 1.233-91.3-.001-165.579-74.279-165.579-165.579zm409.613 165.875c-52.662 52.662-136.243 56.024-192.856 10.092l20.726-20.726c20.018 15.421 44.417 23.779 70.104 23.779 30.763 0 59.686-11.98 81.438-33.733 41.298-41.298 44.612-106.412 9.948-151.537l20.732-20.732c45.932 56.613 42.57 140.195-10.092 192.857z"/><path d="m119.424 173.536h30.104v30.106h-30.104z"/><path d="m89.32 203.642h30.104v30.106h-30.104z"/></g></svg>
